<svg xmlns="http://www.w3.org/2000/svg" width="800" height="800" class="icon" viewBox="0 0 1024 1024"><path fill="#EFD358" d="M895.573 652.096a21.504 21.504 0 0 0-20.693-5.504A406.187 406.187 0 0 1 768 661.333c-223.51 0-405.333-181.824-405.333-405.333 0-35.136 4.949-71.104 14.741-106.88a21.333 21.333 0 0 0-26.197-26.219C156.97 175.957 21.333 353.515 21.333 554.667c0 247.04 200.96 448 448 448 201.174 0 378.71-135.638 431.744-329.856a21.333 21.333 0 0 0-5.504-20.715z"/><path fill="#C6C6C6" d="M725.333 106.667c-35.285 0-64-28.715-64-64a21.333 21.333 0 1 0-42.666 0c0 35.285-28.715 64-64 64a21.333 21.333 0 1 0 0 42.666c35.285 0 64 28.715 64 64a21.333 21.333 0 1 0 42.666 0c0-35.285 28.715-64 64-64a21.333 21.333 0 1 0 0-42.666zm256 256c-35.285 0-64-28.715-64-64a21.333 21.333 0 1 0-42.666 0c0 35.285-28.715 64-64 64a21.333 21.333 0 1 0 0 42.666c35.285 0 64 28.715 64 64a21.333 21.333 0 1 0 42.666 0c0-35.285 28.715-64 64-64a21.333 21.333 0 1 0 0-42.666z"/></svg>