<svg xmlns="http://www.w3.org/2000/svg" width="800" height="800" viewBox="0 -17.16 370.248 370.248"><defs><style>.b{fill:#231815}.c{fill:#fff}.f{fill:#211715}.g{fill:#ffda71}</style></defs><path d="M27.339 45.822c-.221 12.627.948 87.438 1.407 94.423C34.275 136.463 93.316 93.51 99.4 88.3c0-8.459-1.485-80.052-1.537-86.293-1.947.532-68.183 42.159-70.524 43.815Z" style="fill:#3f88c9"/><path d="M25.339 45.822c-.2 11.795.1 23.612.251 35.406q.3 23 .774 46c.095 4.333.1 8.689.382 13.017.09 1.4 1.671 2.644 3.009 1.727 8.313-5.7 16.383-11.772 24.526-17.7Q72 111.364 89.6 98.3c3.514-2.623 7.058-5.222 10.47-7.978a2.805 2.805 0 0 0 1.325-2.311c.02-.636-.008-1.277-.015-1.913q-.031-3.021-.084-6.043-.332-21.158-.775-42.313c-.22-11.457-.473-22.914-.644-34.371-.007-.456-.014-.912-.018-1.367A2.02 2.02 0 0 0 97.328.078a13.125 13.125 0 0 0-2.692 1.414 352.466 352.466 0 0 0-5.215 3.13q-8.289 5.043-16.516 10.184-18.632 11.58-37.18 23.3c-3.131 1.978-6.364 3.863-9.4 5.994-2.089 1.47-.093 4.94 2.019 3.454 2.505-1.761 5.172-3.323 7.758-4.959q8.223-5.2 16.47-10.37c12.289-7.712 24.579-15.414 36.951-22.98 2.133-1.3 4.268-2.607 6.419-3.88.657-.388 1.313-.777 1.98-1.148.2-.112.407-.214.605-.329.477-.275-.238.078-.136.047l-2.532-1.928c.086 9.86.354 19.721.544 29.579q.418 21.729.811 43.457c.075 4.418.181 8.838.182 13.257l.586-1.414c-.425.363-.862.711-1.3 1.058q-.415.328-.833.653l-.469.364c.5-.388-.2.152-.311.239q-2.838 2.18-5.709 4.319-8.02 6.009-16.106 11.933-17.612 12.957-35.327 25.77c-3.384 2.446-6.745 4.936-10.19 7.3l3.009 1.727c-.235-3.639-.252-7.3-.336-10.944q-.234-10.218-.4-20.436-.41-23.569-.638-47.131c-.045-5.3-.124-10.612-.033-15.916.043-2.575-3.956-2.575-4 0Z" class="b"/><path d="M362.366 276.353c1.832-1.922 3.618-3.8 5.339-5.626a1.956 1.956 0 0 0 .541-1.388c-.206-14.681-.244-42-.244-54.935-9.025-5.559-48.118-24-57.439-28.892-10.023-5.254-26.473-13.311-44.781-22.06l-48.051-26.091c-25.41-11.8-46.477-21.52-52.3-23.91-10.52 7.56-41.48 32.47-64.15 50.22l-.822.644c23.695-.664 42.727 10.294 67.592 23.041 16.193 8.3 34.536 14.089 50.96 22.077 10.378 5.046 19.3 12.038 28.622 17.714 23.037 12.565 43.548 22.653 49.918 28.838 10.079 9.787 14.11 17.874 16.488 31.721.546 3.184 3.373 25.025 2.8 33.634q-.089 1.315-.232 2.456c.484-.513.75-.789.75-.789 10.617-11.06 29.469-30.343 45.009-46.654Z" class="c"/><path d="M170.226 48.725a4.331 4.331 0 0 0-4.9 4.353v60.484c6.21 2.55 32 14.151 59.369 26.921l40.98 23.08c18.307 8.749 34.758 16.806 44.781 22.06 9.33 4.892 48.491 23.369 57.466 28.908 0-17.168.1-58.595.1-75.356a8.271 8.271 0 0 0-4.568-7.48C334.432 118.258 208.578 63.6 171.076 48.958a4.079 4.079 0 0 0-.85-.233Z" style="fill:#cfcfcf"/><path d="M212.546 168.775c-6.606 2.636-12.435 5.059-13.745 5.621l-2.225.951a5.4 5.4 0 0 0-1.611-.747 3.8 3.8 0 0 0-4.833 2.048 13.012 13.012 0 0 0-1.339 8.1 10 10 0 0 0 1.507 4.14 8.222 8.222 0 0 0 3.054 2.724 26.745 26.745 0 0 0-.277 3 23.431 23.431 0 0 0 .067 3.778c8.763 3.525 17.562 7 25.87 11.043a152.385 152.385 0 0 1 17.916 10.753 16.287 16.287 0 0 0 7.2-4.568c.66-.681 1.542-1.724 2.3-2.688.2.026.317.039.317.039a8.369 8.369 0 0 0 3.743.52 10 10 0 0 0 4.163-1.441 13.016 13.016 0 0 0 5.447-6.148 4.408 4.408 0 0 0 .415-2.081 4.356 4.356 0 0 0-1.875-2.961 5.011 5.011 0 0 0-3.81-.9 34.159 34.159 0 0 0-7.814-23.035c-.887-1.065-1.9-2.227-1.847-3.612.052-1.481 1.284-2.6 2.11-3.829s1.079-3.256-.255-3.9c-1.76-.849-4.595.839-6.519 1.088-4.187.922-12.58 3.418-13.033 2.964-.313-.313.025-6.07.193-6.636-4.323 1.528-9.958 3.718-15.119 5.777Z" class="c"/><path d="M240.507 166.665c-4.187.922-12.58 3.418-13.033 2.964-.313-.313.025-6.07.193-6.636-9.862 3.5-25.165 9.706-24.977 9.625l-5.9 2.891a5.32 5.32 0 0 0-1.829-.909 5.066 5.066 0 0 0-1.2-.176l1.905-6.111a32.627 32.627 0 0 1 8.577-16.707 31.286 31.286 0 0 1 17.394-8.695 32.77 32.77 0 0 0-5.027-4.59c4.96-1.2 14.411-1.047 19.852 1.186 5.46 2.24 13.39 5.8 16.028 14.313 5.562 1.4 11.337 8.318 12.8 11.627a27.316 27.316 0 0 1 1.99 7.57 30.225 30.225 0 0 1-.43 8.59 37.716 37.716 0 0 1-2.84 9.91 61.921 61.921 0 0 1-4.36 8.21 8.324 8.324 0 0 1-.954 1.175.67.67 0 0 0-.06-.045 5.01 5.01 0 0 0-3.81-.9 34.159 34.159 0 0 0-7.814-23.035c-.887-1.065-1.9-2.227-1.847-3.612.052-1.481 1.284-2.6 2.11-3.829s1.079-3.256-.255-3.9c-1.76-.849-4.595.839-6.519 1.088" style="fill:#89705d"/><path d="M260.334 161.358c16.828 8.79 33.523 17.855 50.424 26.5 12.743 6.52 25.726 12.57 38.535 18.959 5.944 2.966 12.032 5.831 17.7 9.308L366 214.4c0 15.814.023 31.628.159 47.441q.022 2.631.052 5.264a11.855 11.855 0 0 1 .074 2.211c-.118.349-.771.816-1.033 1.092q-.654.692-1.311 1.383-4.746 5-9.524 9.975-9.913 10.33-19.888 20.6-9.3 9.6-18.584 19.228c-1.782 1.858 1.043 4.691 2.829 2.828 13.2-13.767 26.55-27.393 39.75-41.162q5.118-5.34 10.2-10.71a4.732 4.732 0 0 0 1.51-3.347c.023-.942-.024-1.891-.035-2.833q-.033-3.012-.057-6.024-.109-13.832-.125-27.661-.015-6.334-.019-12.668c0-1.712.033-3.428 0-5.139a2.514 2.514 0 0 0-1.315-2.4c-.408-.257-.831-.492-1.248-.73-5.133-2.93-10.453-5.546-15.738-8.185-12.454-6.219-25.045-12.162-37.478-18.421-14.691-7.395-29.128-15.326-43.7-22.959q-4.086-2.142-8.176-4.278c-2.279-1.19-4.3 2.26-2.019 3.454Z" class="b"/><path d="M316.124 265.828c12.093-11.073 23.846-22.515 35.8-33.734 2.563-2.4 5.13-4.8 7.741-7.155 1.918-1.726-.918-4.547-2.828-2.828-11.668 10.5-22.872 21.528-34.3 32.285q-4.6 4.328-9.242 8.6c-1.9 1.742.932 4.565 2.829 2.828ZM167.433 113.451V54.859c0-1.148-.221-2.495.547-3.452.888-1.109 2.065-.872 3.224-.418q2.432.953 4.853 1.926c8.709 3.49 17.372 7.093 26.026 10.716q16.6 6.95 33.143 14.027 18.407 7.856 36.776 15.8 17.958 7.76 35.886 15.589 15.378 6.717 30.725 13.506c7.232 3.2 14.462 6.415 21.654 9.709 1.992.912 3.965 1.662 5.083 3.7 1.277 2.333.776 5.541.774 8.118q-.009 9.667-.027 19.333-.037 21.411-.071 42.821v7.659c0 2.573 4 2.578 4 0q0-20.29.057-40.579.019-10.814.036-21.629l.01-8.838c0-3.237.211-6.493-1.592-9.362-2.238-3.564-6.751-4.919-10.423-6.581s-7.355-3.308-11.039-4.949q-14.706-6.55-29.459-13-17.814-7.8-35.663-15.53-18.807-8.144-37.648-16.21-17.577-7.515-35.195-14.938c-9.388-3.948-18.785-7.874-28.223-11.7q-2.716-1.1-5.438-2.187c-1.91-.761-4.092-1.984-6.187-1.8a6.38 6.38 0 0 0-4.805 2.9 8.429 8.429 0 0 0-1.02 4.83V113.459c0 2.574 4 2.578 4 0Z" class="b"/><path d="M179.9 66.75c7.591 3.4 15.237 6.687 22.867 10q19.932 8.664 39.874 17.3 22.9 9.932 45.8 19.878 19.906 8.654 39.789 17.362c7.581 3.329 15.211 6.583 22.7 10.126.338.16.676.322 1.011.488 2.3 1.145 4.325-2.305 2.018-3.454-6.478-3.226-13.211-6-19.832-8.911q-19.137-8.424-38.321-16.742-22.848-9.939-45.711-19.846-20.584-8.92-41.166-17.851c-8.524-3.7-17.058-7.387-25.553-11.155q-.728-.323-1.453-.648a2.062 2.062 0 0 0-2.737.718 2.015 2.015 0 0 0 .718 2.736Z" class="b"/><path d="M252.677 155.954a18.909 18.909 0 0 1 7.263 5.337 18.654 18.654 0 0 1 4.254 6.86c2.206 6.816 1.166 14.405-1.361 21a49.13 49.13 0 0 1-2.475 5.36 23.9 23.9 0 0 1-3.082 4.985c-1.726 1.9 1.095 4.74 2.828 2.828 2.58-2.844 4.33-6.716 5.817-10.222a45.385 45.385 0 0 0 3.128-11.756 29.949 29.949 0 0 0-.741-12.414 22.485 22.485 0 0 0-4.829-8.674 23.537 23.537 0 0 0-9.739-7.165c-2.434-.853-3.48 3.01-1.063 3.857ZM195.089 197.71a31.921 31.921 0 0 1 .1-4.78c.015-.182.032-.365.052-.547.022-.2.147-.457-.009.043.09-.289.121-.618.182-.915.152-.726.311-1.451.522-2.163a2.021 2.021 0 0 0-1.4-2.461 2.042 2.042 0 0 0-2.46 1.4 27.153 27.153 0 0 0-.99 9.426 2 2 0 0 0 4 0ZM238.222 221.88a18.579 18.579 0 0 0 7.086-4.6c.8-.823 1.549-1.7 2.268-2.595a20.713 20.713 0 0 0 2.092-2.862 2 2 0 0 0-3.454-2.018 9.683 9.683 0 0 1-.645.976 7.173 7.173 0 0 1-.529.709c.36-.385.042-.055-.027.032l-.266.335a35.93 35.93 0 0 1-2.21 2.535q-.45.465-.932.9c-.2.179-.4.353-.607.524a1.859 1.859 0 0 1-.311.251q.337-.258.075-.059l-.172.127a16 16 0 0 1-1.674 1.078q-.469.262-.956.49c-.128.059-.473.2-.148.07-.216.087-.434.168-.653.246a2 2 0 0 0 1.063 3.857Z" class="f"/><path d="M199.7 175.779a7.2 7.2 0 0 0-7.141-3.254c-2.953.463-4.439 3.128-5.259 5.754-1.668 5.345-.28 11.924 4.76 14.915 2.219 1.316 4.233-2.14 2.019-3.454-3.126-1.855-3.934-5.9-3.22-9.258.249-1.17.8-3.512 2.033-3.958a3.16 3.16 0 0 1 3.354 1.274c1.376 2.167 4.84.163 3.454-2.019ZM255.05 201.906a4.77 4.77 0 0 1 .7-.039c.1 0 .2.006.307.017-.187-.027-.156-.019.091.026a3.6 3.6 0 0 1 .936.327 3.252 3.252 0 0 1 .987.791c-.131-.152.2.287.2.3.021.034.259.569.152.268a3.558 3.558 0 0 1 .108.379q-.027-.354 0 .094a.713.713 0 0 1-.052.415 4.8 4.8 0 0 1-.362.987 12.346 12.346 0 0 1-1.337 2.165 11.274 11.274 0 0 1-4.227 3.269 8.136 8.136 0 0 1-2.4.611 6.476 6.476 0 0 1-2.871-.472 2.019 2.019 0 0 0-2.46 1.4 2.044 2.044 0 0 0 1.4 2.461c4.26 1.579 8.719-.1 11.975-2.98 2.858-2.528 5.919-7.311 3.29-10.971a7.145 7.145 0 0 0-6.435-3.041 2.064 2.064 0 0 0-2 2 2.012 2.012 0 0 0 2 2Z" class="f"/><path d="M81.341 68.378C86.188 61.711 89.317 44.45 72.183 35a31.247 31.247 0 0 1 1.477 23.334c-1.864 5.594-7.607 13.921-17.724 14.18 10.044 8.862 21.764.877 25.405-4.136Z" class="g"/><path d="M83.068 69.387c5.908-8.235 5.294-20.544-.773-28.455a29.416 29.416 0 0 0-9.1-7.662 2.017 2.017 0 0 0-2.737 2.736c3.4 7.35 3.979 16.7.357 24.019-2.881 5.827-8.189 10.249-14.877 10.489-1.61.057-2.8 2.223-1.414 3.414a17.332 17.332 0 0 0 16.891 3.7 23.5 23.5 0 0 0 11.655-8.241 2.014 2.014 0 0 0-.718-2.736 2.047 2.047 0 0 0-2.736.718 19.64 19.64 0 0 1-8.951 6.3A13.274 13.274 0 0 1 57.35 71.1l-1.414 3.415a20.827 20.827 0 0 0 16.073-8.791c3.782-5.079 5.371-11.606 5.234-17.875a34.762 34.762 0 0 0-3.333-13.862l-2.736 2.737c5 2.8 9.26 6.918 11.028 12.482a21.6 21.6 0 0 1-.045 12.923 17 17 0 0 1-2.543 5.24 2.016 2.016 0 0 0 .717 2.736 2.044 2.044 0 0 0 2.737-.718Z" class="b"/><path d="M47.547 98.782a3.308 3.308 0 0 0-1.265 4.691c.722 1.112 2.917 1.537 4.406.938a3.231 3.231 0 0 0 1.543-4.617c-.566-1.146-2.664-2.041-4.684-1.012Z" class="g"/><path d="M102.7 165.085c18.191-14.245 36.166-28.77 54.449-42.9 3.07-2.372 6.146-4.742 9.3-7.009l-1.541.2a2.686 2.686 0 0 1 .442.183c-.441-.288-.014-.006.155.067q.638.275 1.274.552 1.575.689 3.144 1.395 4.262 1.909 8.5 3.862 12.1 5.541 24.165 11.16 8.1 3.759 16.205 7.523a2.057 2.057 0 0 0 2.736-.717 2.016 2.016 0 0 0-.717-2.736q-16.651-7.732-33.314-15.441c-6.681-3.08-13.344-6.224-20.113-9.109a5.428 5.428 0 0 0-1.95-.668 4.025 4.025 0 0 0-2.209 1.145q-1.7 1.251-3.388 2.531-4.578 3.468-9.1 7.012-11.524 8.981-22.954 18.082-13.941 11.037-27.915 22.036a2.011 2.011 0 0 0 0 2.828 2.05 2.05 0 0 0 2.829 0Z" class="b"/><path d="M3.44 223.754c9.425-8.983 19.044-17.808 29.556-25.518a308.169 308.169 0 0 1 34.814-21.891c7-3.812 14.327-7.144 22.153-8.84a64.3 64.3 0 0 1 22.542-.523c14.991 2.157 28.794 8.9 42.14 15.715 7.374 3.768 14.662 7.695 22.235 11.056 7.606 3.374 15.362 6.393 23.071 9.521a208.532 208.532 0 0 1 22.132 10c7.064 3.879 13.616 8.588 20.368 12.968 6.887 4.465 14.312 8.105 21.548 11.969 6.3 3.367 12.619 6.719 18.819 10.275a82.471 82.471 0 0 1 12.131 7.847 50.408 50.408 0 0 1 11.028 13.2c5.031 8.721 6.306 18.8 7.41 28.538.631 5.573 1.188 11.166 1.435 16.771.217 4.908.309 10.279-1.721 14.858a11.927 11.927 0 0 1-1.111 1.954c-.329.474.242-.283-.084.118-.06.073-.12.145-.181.216-.146.168-.3.331-.447.493-1.75 1.884 1.072 4.72 2.829 2.829 2.98-3.208 4.029-7.494 4.53-11.744.625-5.317.144-10.75-.307-16.063-.843-9.951-1.622-20.37-4.586-29.959a51.522 51.522 0 0 0-20.012-27.054c-4.987-3.385-10.3-6.3-15.579-9.2-6.927-3.8-13.917-7.477-20.878-11.211-3.845-2.063-7.735-4.056-11.417-6.4-3.434-2.19-6.8-4.488-10.192-6.736a149.973 149.973 0 0 0-21.62-12.023c-15.475-6.924-31.554-12.383-46.652-20.151-14.2-7.3-28.431-15.3-43.922-19.553-15.069-4.141-30.913-4.024-45.5 1.856a160.8 160.8 0 0 0-21.9 11.423c-5.916 3.52-11.784 7.124-17.5 10.963A251.319 251.319 0 0 0 8.742 213.3q-4.1 3.773-8.13 7.629c-1.868 1.779.964 4.605 2.828 2.828ZM145.713 168.738a64.474 64.474 0 0 1 9.1-12.645c2.769-3.012 5.622-5.954 8.615-8.744 3.6-3.357 7.511-6.963 12.443-8.1a17.153 17.153 0 0 1 8.223.211 31.057 31.057 0 0 1 6.645 3.021c4.78 2.568 9.679 4.929 14.382 7.638 2.235 1.288 4.252-2.167 2.019-3.453-4.432-2.554-9.039-4.8-13.554-7.2a49.265 49.265 0 0 0-7.046-3.445 21.428 21.428 0 0 0-9.2-1.047c-5.822.644-10.322 3.849-14.6 7.605a137.708 137.708 0 0 0-9.85 9.706 72.143 72.143 0 0 0-10.63 14.428c-1.246 2.256 2.207 4.276 3.453 2.019Z" class="b"/><path d="M267.273 180.937c12.98 6.6 26.285 12.554 37.577 21.924 1.13.938 2.244 1.9 3.3 2.923a14.185 14.185 0 0 1 2.022 2.308 20.662 20.662 0 0 1 3.017 7.485c1.405 7.289-1.528 14.375-5.835 20.133-.265.354-.517.715-.783 1.068.255-.338-.175.218-.25.311q-.284.35-.572.694a83.976 83.976 0 0 1-3.359 3.748 84.569 84.569 0 0 1-9.817 9.008 2.067 2.067 0 0 0-.718 2.736 2.014 2.014 0 0 0 2.737.718 80.775 80.775 0 0 0 15.433-15.2c4.5-6 7.853-12.882 7.476-20.565a22.918 22.918 0 0 0-7.027-15.756 93.929 93.929 0 0 0-15.393-11.5c-8.315-5.044-17.132-9.093-25.788-13.5-2.289-1.164-4.316 2.286-2.019 3.454Z" class="b"/><path d="M218.018 190.817a36.91 36.91 0 0 0-1.985 2.512 3.06 3.06 0 0 0-.566 1.378 2.386 2.386 0 0 0 .16 1.3 3.126 3.126 0 0 0 .618.927 3.209 3.209 0 0 0 1.165.783c.249.1.491.171.746.254a2 2 0 0 0 2.258-2.938 2.17 2.17 0 0 0-1.195-.919c-.168-.055-.342-.089-.507-.154l.478.2a1.546 1.546 0 0 1-.33-.19l.4.313a1.987 1.987 0 0 1-.3-.308l.313.405a.893.893 0 0 1-.1-.155l.2.477a.385.385 0 0 1-.026-.1l.071.531a.771.771 0 0 1 0-.159l-.072.532a1.153 1.153 0 0 1 .068-.216l-.2.478a5.853 5.853 0 0 1 .695-1.006l-.313.405q.6-.775 1.239-1.52a2.133 2.133 0 0 0 .586-1.415 2 2 0 0 0-2-2 1.983 1.983 0 0 0-1.415.586ZM237.808 189.856a5.951 5.951 0 0 1-.693-.052l.532.071a8.1 8.1 0 0 1-1.956-.545l.478.2a7.443 7.443 0 0 1-1.6-.9l.405.313a4.308 4.308 0 0 1-.737-.71l.312.405a3.272 3.272 0 0 1-.07-.094 2.178 2.178 0 0 0-1.2-.919 2.043 2.043 0 0 0-1.541.2 2.017 2.017 0 0 0-.919 1.195 1.948 1.948 0 0 0 .2 1.541 6.959 6.959 0 0 0 1.581 1.563 7.37 7.37 0 0 0 1.333.771 9.773 9.773 0 0 0 3.869.962 2 2 0 0 0 0-4ZM208.252 181.942a10.839 10.839 0 0 0 6.632 2.5 2.015 2.015 0 0 0 2-2 2.044 2.044 0 0 0-2-2q-.436-.021-.868-.078l.531.072a9.878 9.878 0 0 1-2.422-.659l.478.2a7.73 7.73 0 0 1-1.628-.932l.405.313c-.1-.079-.2-.161-.3-.245a2.123 2.123 0 0 0-1.414-.586 2.037 2.037 0 0 0-1.415.586 2.009 2.009 0 0 0-.585 1.414 1.982 1.982 0 0 0 .585 1.414ZM221.112 140.983a32.858 32.858 0 0 0-18.577 9.519 34.688 34.688 0 0 0-8.792 17.28c-.485 2.515 3.37 3.592 3.857 1.063a30.9 30.9 0 0 1 7.763-15.515 29.4 29.4 0 0 1 16.812-8.49 2.015 2.015 0 0 0 1.4-2.46 2.049 2.049 0 0 0-2.46-1.4ZM239.976 164.737c-2.5.558-4.976 1.243-7.458 1.88a94.934 94.934 0 0 1-3.329.812q-.609.135-1.224.244c-.349.06.221.155-.106.006-.466-.212.649.239.624.223l.718.717q.213.612.135.284.063.51.03.139c0-.256-.018-.511-.02-.767a55.256 55.256 0 0 1 .172-3.994c.02-.253.045-.5.069-.756.046-.486-.1.443.009 0a2.018 2.018 0 0 0-2.461-2.46c-9.9 3.518-19.683 7.472-29.343 11.6a2.013 2.013 0 0 0-.718 2.736 2.053 2.053 0 0 0 2.737.717c.6-.258-.215.088.259-.11l.986-.412q1.276-.532 2.555-1.058 3.738-1.538 7.489-3.038c5.665-2.277 11.346-4.529 17.1-6.574l-2.461-2.46a24.47 24.47 0 0 0-.389 5.354c-.022 1.841.22 3.911 2.566 3.86a27.484 27.484 0 0 0 5.976-1.282c2.379-.613 4.75-1.265 7.148-1.8 2.511-.56 1.448-4.417-1.063-3.857Z" class="f"/><path d="M241.039 168.594c1.5-.243 2.917-1.091 4.428-1.229a2.116 2.116 0 0 1 .755.032c-.137-.028-.263-.234-.262-.237a3.579 3.579 0 0 1-.62 1.613c-1 1.41-2.142 2.7-2.169 4.533-.028 1.873 1.059 3.353 2.189 4.734a32.744 32.744 0 0 1 7.5 20.126c.05 2.57 4.05 2.579 4 0a36.168 36.168 0 0 0-2.406-12.412 37.371 37.371 0 0 0-2.792-5.744 58.584 58.584 0 0 0-3.717-5.1c-.386-.509-.887-1.114-.726-1.788a8.1 8.1 0 0 1 1.577-2.333 5.574 5.574 0 0 0 .908-4.978c-1.586-4.4-6.713-1.565-9.726-1.077a2.015 2.015 0 0 0-1.4 2.46 2.048 2.048 0 0 0 2.46 1.4ZM254.4 153.2c-3.762-11.492-16.986-17.109-28.221-17.578a37.735 37.735 0 0 0-10.092.774c-1.848.432-1.742 2.7-.477 3.655a29.056 29.056 0 0 1 4.622 4.278c1.669 1.964 4.487-.877 2.828-2.829a33.582 33.582 0 0 0-5.431-4.9l-.478 3.655a34.914 34.914 0 0 1 10.146-.571 28.954 28.954 0 0 1 9.489 2.107c5.9 2.5 11.658 6.062 13.756 12.475.8 2.435 4.661 1.393 3.858-1.064Z" class="f"/></svg>